<svg width="2300" height="2300" viewBox="0 0 2300 2300" fill="none" xmlns="http://www.w3.org/2000/svg">
<path d="M2109.12 982.687C2109.84 982.689 2110.55 982.691 2111.28 982.693C2123.69 982.746 2135.82 983.513 2148 986C2148.77 986.156 2149.53 986.311 2150.33 986.472C2184.27 993.767 2216.4 1017.18 2235.31 1046.03C2248.87 1067.32 2257.36 1090 2261 1115C2261.17 1116.13 2261.34 1117.26 2261.52 1118.43C2263.01 1129.07 2263.32 1139.52 2263.25 1150.25C2263.25 1151.11 2263.24 1151.97 2263.24 1152.85C2263.18 1165.31 2263.11 1177.69 2261 1190C2260.79 1191.25 2260.79 1191.25 2260.58 1192.53C2254.6 1226.36 2238.54 1256.11 2214 1280C2213.27 1280.77 2213.27 1280.77 2212.52 1281.55C2208.34 1285.86 2203.98 1289.5 2199.06 1292.94C2198.33 1293.45 2197.59 1293.97 2196.83 1294.5C2189.57 1299.47 2182.05 1303.48 2174 1307C2173.07 1307.41 2173.07 1307.41 2172.12 1307.83C2153.5 1315.91 2133.11 1319.23 2112.94 1319.25C2112.23 1319.25 2111.52 1319.25 2110.78 1319.25C2098.33 1319.24 2086.24 1318.36 2074 1316C2072.86 1315.78 2072.86 1315.78 2071.69 1315.56C2045.77 1310.48 2023.76 1298.64 2005 1280C2004.01 1278.51 2004.01 1278.51 2003 1277C2002.67 1325.18 2002.34 1373.36 2002 1423C1976.59 1423 1951.18 1423 1925 1423C1925 1280.77 1925 1138.54 1925 992C1948.43 992 1971.86 992 1996 992C1996.33 1005.86 1996.66 1019.72 1997 1034C1999.97 1030.37 2002.94 1026.74 2006 1023C2032.4 993.532 2070.36 982.479 2109.12 982.687Z" fill="black"/>
<path d="M714 985C714.769 985.139 715.538 985.278 716.331 985.422C746.362 990.889 774.299 1004.74 797 1025C798.156 1025.97 798.156 1025.97 799.336 1026.97C804.052 1030.94 808.103 1035.22 812 1040C812.762 1040.92 813.524 1041.85 814.309 1042.8C839.298 1073.78 849.458 1111.09 849.375 1150.44C849.375 1151.36 849.375 1152.29 849.374 1153.24C849.341 1167.84 848.548 1181.77 845 1196C844.802 1196.81 844.604 1197.61 844.4 1198.44C842.142 1207.37 839.127 1215.76 835 1224C834.418 1225.23 833.837 1226.47 833.258 1227.7C826.15 1242.63 817.153 1255.8 806 1268C805.308 1268.76 805.308 1268.76 804.603 1269.53C778.388 1297.93 741.606 1313.27 704 1319C702.945 1319.18 701.89 1319.35 700.803 1319.54C696.275 1320.09 691.845 1320.16 687.289 1320.17C686.363 1320.17 685.436 1320.17 684.482 1320.18C682.524 1320.18 680.565 1320.19 678.607 1320.19C675.669 1320.19 672.731 1320.21 669.793 1320.22C653.942 1320.27 638.869 1319.1 623.437 1315.25C622.366 1314.98 621.294 1314.72 620.19 1314.45C598.178 1308.84 577.93 1299.01 560 1285C559.028 1284.25 558.056 1283.5 557.055 1282.73C530.984 1262.03 512.747 1233 504 1201C503.716 1200.06 503.433 1199.12 503.141 1198.15C495.039 1169.46 495.305 1135.9 502 1107C502.182 1106.19 502.364 1105.38 502.551 1104.54C511.048 1067.65 535.014 1032.52 567 1012C567.973 1011.37 568.946 1010.73 569.949 1010.08C587.525 998.923 606.173 990.596 626.624 986.485C628.24 986.155 629.853 985.807 631.462 985.444C657.893 979.525 687.451 979.769 714 985Z" fill="black"/>
<path d="M117.172 863.34C119.066 863.365 120.96 863.382 122.854 863.392C129.821 863.48 136.786 863.718 143.75 863.937C159.342 864.288 174.935 864.639 191 865C191 923.41 191 981.82 191 1042C214.76 1042 238.52 1042 263 1042C263.66 1040.68 264.32 1039.36 265 1038C266.678 1035.66 268.38 1033.35 270.125 1031.06C270.647 1030.37 271.169 1029.68 271.707 1028.97C273.467 1026.64 275.233 1024.32 277 1022C277.639 1021.16 278.278 1020.32 278.937 1019.46C281.643 1015.9 284.351 1012.35 287.062 1008.8C291.192 1003.39 295.298 997.954 299.375 992.5C303.602 986.847 307.879 981.237 312.191 975.648C321.091 964.103 329.901 952.49 338.625 940.812C343.368 934.464 348.175 928.175 353.062 921.937C358.423 915.095 363.609 908.141 368.737 901.123C373.382 894.787 378.166 888.569 383.031 882.4C383.565 881.722 384.099 881.043 384.648 880.344C385.176 879.702 385.703 879.061 386.246 878.4C388.092 876.032 388.092 876.032 389.319 873.207C391.202 869.653 392.83 867.51 396 865C402.879 862.946 410.476 863.724 417.562 863.926C419.681 863.946 421.799 863.962 423.918 863.973C429.476 864.015 435.031 864.123 440.588 864.245C446.265 864.357 451.943 864.407 457.621 864.463C468.749 864.581 479.874 864.768 491 865C484.723 874.524 484.723 874.524 481.703 878.359C481.142 879.076 480.581 879.792 480.003 880.53C479.424 881.263 478.846 881.995 478.25 882.75C477.01 884.332 475.771 885.914 474.531 887.496C473.628 888.646 473.628 888.646 472.707 889.82C470.37 892.804 468.057 895.805 465.75 898.812C464.555 900.369 464.555 900.369 463.336 901.957C462.565 902.961 461.794 903.965 461 905C460.25 905.973 459.5 906.946 458.727 907.949C452.752 915.701 446.819 923.483 440.891 931.27C436.44 937.115 431.973 942.947 427.488 948.766C424.482 952.669 421.492 956.585 418.5 960.5C412.26 968.665 405.999 976.815 399.723 984.953C394.459 991.785 389.224 998.638 384 1005.5C378.023 1013.35 372.026 1021.19 366 1029C356.144 1041.79 356.144 1041.79 346.348 1054.63C344.082 1057.61 341.774 1060.54 339.434 1063.46C338.31 1064.89 337.186 1066.32 336.062 1067.75C335.524 1068.41 334.985 1069.06 334.43 1069.74C332.77 1071.78 332.77 1071.78 331 1075C331.651 1079.64 335.474 1083.49 338.312 1087.12C342.956 1093.18 347.358 1099.36 351.625 1105.69C356.04 1112.22 360.62 1118.51 365.484 1124.71C368.922 1129.15 372.111 1133.76 375.328 1138.35C379.006 1143.6 382.737 1148.81 386.5 1154C390.707 1159.81 394.876 1165.64 399 1171.5C404.718 1179.63 410.528 1187.69 416.359 1195.73C419.076 1199.49 421.788 1203.24 424.5 1207C425.583 1208.5 426.667 1210 427.75 1211.5C429.917 1214.5 432.083 1217.5 434.25 1220.5C434.786 1221.24 435.323 1221.99 435.876 1222.75C436.957 1224.25 438.038 1225.74 439.118 1227.24C441.863 1231.04 444.608 1234.84 447.355 1238.64C454.334 1248.29 461.277 1257.97 468.188 1267.67C473.312 1274.86 478.457 1282.03 483.625 1289.19C484.452 1290.33 484.452 1290.33 485.295 1291.5C487.722 1294.86 490.153 1298.21 492.605 1301.55C493.334 1302.55 494.062 1303.54 494.812 1304.56C495.438 1305.41 496.063 1306.26 496.707 1307.13C498 1309 498 1309 498 1310C485.787 1310.3 473.575 1310.53 461.359 1310.67C455.685 1310.74 450.015 1310.83 444.343 1310.98C438.864 1311.12 433.387 1311.2 427.906 1311.23C425.821 1311.26 423.735 1311.3 421.651 1311.37C405.751 1311.89 405.751 1311.89 401.155 1308.73C397.599 1305.29 395.322 1301.33 393 1297C391.975 1295.53 390.933 1294.07 389.855 1292.64C388.964 1291.37 388.074 1290.09 387.188 1288.81C383.008 1282.84 378.781 1276.9 374.5 1271C370.293 1265.19 366.124 1259.36 362 1253.5C357.29 1246.8 352.517 1240.15 347.715 1233.52C344.057 1228.47 340.423 1223.4 336.804 1218.32C333.433 1213.59 330.03 1208.89 326.625 1204.19C321.875 1197.62 317.18 1191.02 312.52 1184.4C308.886 1179.23 305.203 1174.11 301.5 1169C297.293 1163.19 293.124 1157.36 289 1151.5C284.789 1145.51 280.537 1139.56 276.25 1133.62C275.706 1132.87 275.163 1132.12 274.603 1131.34C272.219 1128.05 269.828 1124.76 267.402 1121.49C266.671 1120.5 265.941 1119.52 265.188 1118.5C264.562 1117.66 263.937 1116.83 263.293 1115.97C262 1114 262 1114 262 1112C238.57 1112 215.14 1112 191 1112C191 1177.67 191 1243.34 191 1311C164.6 1311 138.2 1311 111 1311C111 1191.54 111 1072.08 111 949C86.58 949 62.16 949 37 949C41.4117 942.067 45.8255 935.258 50.5625 928.562C51.7891 926.819 53.0157 925.075 54.2422 923.332C54.8632 922.451 55.4842 921.57 56.124 920.663C59.1528 916.364 62.1709 912.057 65.1875 907.75C65.7707 906.918 66.3539 906.085 66.9548 905.227C70.0257 900.839 73.0821 896.442 76.1091 892.024C76.9877 890.742 77.8728 889.465 78.7748 888.2C81.2065 884.751 83.4086 881.315 85.3704 877.577C93.3616 863.208 101.595 862.649 117.172 863.34Z" fill="black"/>
<path d="M908 992C933.74 992 959.48 992 986 992C986 1032.26 986 1072.52 986 1114C1029.23 1114 1072.46 1114 1117 1114C1117 1073.74 1117 1033.48 1117 992C1142.41 992 1167.82 992 1194 992C1194 1096.94 1194 1201.88 1194 1310C1168.59 1310 1143.18 1310 1117 1310C1117 1265.45 1117 1220.9 1117 1175C1073.77 1175 1030.54 1175 986 1175C986 1219.55 986 1264.1 986 1310C960.26 1310 934.52 1310 908 1310C908 1205.06 908 1100.12 908 992Z" fill="black"/>
<path d="M1566 992C1593.06 992 1620.12 992 1648 992C1650.4 997.991 1652.47 1003.42 1654.23 1009.53C1654.98 1011.93 1655.87 1014.21 1656.84 1016.53C1659.65 1023.46 1661.79 1030.59 1664 1037.72C1665.48 1042.44 1666.98 1047.09 1668.88 1051.66C1672.33 1060.06 1674.96 1068.78 1677.79 1077.41C1681.6 1089.01 1681.6 1089.01 1685.98 1100.41C1688.39 1106.53 1690.37 1112.82 1692.44 1119.06C1692.8 1120.17 1692.8 1120.17 1693.18 1121.29C1696.03 1129.86 1698.82 1138.44 1701.3 1147.12C1704.79 1159.34 1708.83 1171.39 1712.75 1183.47C1713.24 1184.98 1713.73 1186.48 1714.22 1187.99C1715.17 1190.92 1716.13 1193.86 1717.09 1196.8C1725.3 1221.97 1725.3 1221.97 1725 1228C1725.66 1228 1726.32 1228 1727 1228C1727.16 1227.18 1727.32 1226.35 1727.48 1225.5C1729.76 1214.21 1732.96 1203.35 1737 1192.56C1738.92 1187.41 1740.48 1182.18 1741.99 1176.89C1745.43 1164.88 1749.29 1152.99 1753.28 1141.15C1756.78 1130.75 1760.23 1120.33 1763.62 1109.89C1763.92 1108.95 1764.23 1108 1764.55 1107.03C1766.05 1102.39 1767.55 1097.75 1769.05 1093.11C1772.07 1083.78 1775.19 1074.5 1778.48 1065.27C1780.98 1058.27 1783.38 1051.23 1785.79 1044.2C1786.63 1041.74 1787.47 1039.28 1788.32 1036.82C1791.08 1028.78 1793.76 1020.74 1796.2 1012.59C1798.36 1005.57 1801.27 998.82 1804 992C1829.41 992 1854.82 992 1881 992C1878.75 1002.12 1878.75 1002.12 1876.9 1007.2C1876.29 1008.87 1876.29 1008.87 1875.68 1010.58C1875.25 1011.75 1874.82 1012.92 1874.38 1014.12C1873.7 1016 1873.02 1017.87 1872.34 1019.75C1871.88 1021.01 1871.43 1022.27 1870.97 1023.53C1868.88 1029.3 1866.87 1035.08 1864.88 1040.88C1861.95 1049.34 1858.93 1057.76 1855.85 1066.17C1853.67 1072.13 1851.53 1078.11 1849.43 1084.11C1846.98 1091.08 1844.49 1098.04 1842 1105C1834.42 1126.1 1834.42 1126.1 1827.27 1147.34C1826.28 1150.2 1825.21 1152.98 1824.07 1155.79C1821.98 1160.95 1820.22 1166.2 1818.5 1171.5C1816.52 1177.62 1814.39 1183.62 1811.96 1189.58C1810.47 1193.33 1809.24 1197.16 1808 1201C1806.52 1205.6 1804.97 1210.14 1803.15 1214.62C1800.42 1221.34 1798.04 1228.17 1795.62 1235C1795.38 1235.68 1795.14 1236.37 1794.89 1237.07C1791.81 1245.78 1788.75 1254.5 1785.93 1263.29C1784.77 1266.85 1783.49 1270.31 1782.09 1273.77C1779.87 1279.24 1777.92 1284.79 1776 1290.38C1775.65 1291.39 1775.3 1292.4 1774.94 1293.44C1772.9 1299.34 1770.89 1305.26 1768.98 1311.21C1767.81 1314.55 1766.48 1317.82 1765.16 1321.11C1763.9 1324.24 1762.69 1327.39 1761.48 1330.54C1756.55 1343.35 1751.49 1355.89 1745 1368C1744.38 1369.23 1743.77 1370.46 1743.15 1371.7C1733.35 1391.18 1719.71 1410.63 1700 1421C1699.17 1421.44 1698.33 1421.89 1697.47 1422.35C1675.61 1433.1 1652.86 1433.32 1629 1433C1625.15 1424.85 1621.84 1416.57 1618.69 1408.12C1618.21 1406.85 1617.73 1405.58 1617.25 1404.31C1616.53 1402.39 1615.81 1400.47 1615.09 1398.54C1613.58 1394.53 1612.05 1390.52 1610.51 1386.51C1610.13 1385.54 1609.76 1384.57 1609.38 1383.57C1608.68 1381.77 1607.99 1379.97 1607.29 1378.17C1606.98 1377.38 1606.68 1376.59 1606.36 1375.77C1606.1 1375.08 1605.83 1374.4 1605.56 1373.69C1605 1372 1605 1372 1605 1370C1606.23 1369.98 1607.46 1369.96 1608.73 1369.94C1613.32 1369.86 1617.91 1369.77 1622.5 1369.68C1624.49 1369.64 1626.47 1369.61 1628.45 1369.58C1631.31 1369.53 1634.17 1369.47 1637.03 1369.41C1638.35 1369.4 1638.35 1369.4 1639.69 1369.38C1651.24 1369.11 1662.46 1365.56 1671.12 1357.62C1677.48 1350.76 1683.26 1341.6 1687 1333C1686.68 1327.18 1684.78 1321.99 1682.81 1316.56C1682.5 1315.68 1682.18 1314.79 1681.86 1313.88C1679.78 1308.07 1677.62 1302.28 1675.42 1296.52C1672.52 1288.84 1669.89 1281.07 1667.25 1273.31C1665.28 1267.55 1663.19 1261.88 1660.89 1256.24C1659.63 1253.08 1658.6 1249.87 1657.56 1246.62C1656.12 1242.18 1654.57 1237.84 1652.69 1233.56C1650.24 1227.85 1648.3 1222.02 1646.38 1216.12C1643.24 1206.56 1639.91 1197.07 1636.44 1187.62C1636.2 1186.98 1635.96 1186.33 1635.72 1185.67C1633 1178.29 1630.22 1170.94 1627.31 1163.62C1624.69 1157.01 1622.4 1150.32 1620.19 1143.56C1617.08 1134.07 1613.72 1124.71 1610.21 1115.36C1607.49 1108.09 1604.84 1100.79 1602.24 1093.48C1601.75 1092.09 1601.75 1092.09 1601.24 1090.68C1599.61 1086.08 1597.98 1081.48 1596.35 1076.88C1593.62 1069.17 1590.86 1061.5 1587.78 1053.93C1585.37 1048 1583.26 1042.03 1581.31 1035.94C1577.65 1024.7 1573.62 1013.61 1569.51 1002.54C1568.82 1000.7 1568.82 1000.7 1568.12 998.816C1567.72 997.718 1567.31 996.619 1566.88 995.487C1566 993 1566 993 1566 992Z" fill="black"/>
<path d="M1245 992C1342.02 992 1439.04 992 1539 992C1539 1012.46 1539 1032.92 1539 1054C1503.36 1054 1467.72 1054 1431 1054C1431 1138.81 1431 1223.62 1431 1311C1405.26 1311 1379.52 1311 1353 1311C1353 1226.19 1353 1141.38 1353 1054C1317.36 1054 1281.72 1054 1245 1054C1245 1033.54 1245 1013.08 1245 992Z" fill="black"/>
<path d="M732.699 1064.12C752.991 1080.69 763.641 1099.55 769 1125C769.177 1125.73 769.354 1126.47 769.537 1127.23C770.146 1130.87 770.182 1134.48 770.203 1138.17C770.209 1138.96 770.215 1139.76 770.22 1140.57C770.23 1142.26 770.236 1143.94 770.24 1145.62C770.25 1148.13 770.281 1150.64 770.312 1153.15C770.488 1179.64 764.089 1204.83 746 1225C745.188 1225.91 744.376 1226.81 743.539 1227.75C726.017 1246.27 701.885 1255.56 676.571 1256.29C648.758 1256.62 624.663 1247.89 604.312 1228.62C592.173 1215.95 584.111 1198.93 580 1182C579.682 1180.72 579.363 1179.44 579.035 1178.12C574.84 1158.9 574.616 1134.92 580 1116C580.267 1114.99 580.534 1113.99 580.809 1112.95C587.997 1088.8 603.416 1069.49 625.414 1057.3C657.658 1040.44 703.192 1041.95 732.699 1064.12Z" fill="#FEFEFE"/>
<path d="M2148 1064C2151.51 1066.84 2154.78 1069.84 2158 1073C2159.14 1074.12 2159.14 1074.12 2160.31 1075.27C2179.68 1095.51 2185.64 1121.46 2185.44 1148.69C2185.43 1150.01 2185.43 1150.01 2185.43 1151.36C2185.27 1182.02 2177.69 1207.57 2156.06 1230.25C2151.74 1234.42 2147.09 1237.81 2142 1241C2140.94 1241.67 2139.89 1242.35 2138.8 1243.04C2119.52 1254.67 2093.91 1257.57 2072.06 1252.76C2068.99 1251.97 2066 1251.01 2063 1250C2062.06 1249.72 2061.12 1249.45 2060.15 1249.16C2038.55 1242.26 2021.71 1227.18 2011 1207.41C1996.22 1178.48 1994.63 1141.65 2004.05 1110.84C2011.96 1086.51 2028.15 1067.57 2050.89 1055.95C2081.9 1041.03 2120.09 1043.42 2148 1064Z" fill="#FEFEFE"/>
</svg>
