<svg width="211" height="55" viewBox="0 0 211 55" fill="none" xmlns="http://www.w3.org/2000/svg">
<path d="M18.112 38.224C16.4693 38.224 14.9973 37.9573 13.696 37.424C12.3947 36.8907 11.3493 36.1013 10.56 35.056C9.792 34.0107 9.38667 32.752 9.344 31.28H15.168C15.2533 32.112 15.5413 32.752 16.032 33.2C16.5227 33.6267 17.1627 33.84 17.952 33.84C18.7627 33.84 19.4027 33.6587 19.872 33.296C20.3413 32.912 20.576 32.3893 20.576 31.728C20.576 31.1733 20.384 30.7147 20 30.352C19.6373 29.9893 19.1787 29.6907 18.624 29.456C18.0907 29.2213 17.3227 28.9547 16.32 28.656C14.8693 28.208 13.6853 27.76 12.768 27.312C11.8507 26.864 11.0613 26.2027 10.4 25.328C9.73867 24.4533 9.408 23.312 9.408 21.904C9.408 19.8133 10.1653 18.1813 11.68 17.008C13.1947 15.8133 15.168 15.216 17.6 15.216C20.0747 15.216 22.0693 15.8133 23.584 17.008C25.0987 18.1813 25.9093 19.824 26.016 21.936H20.096C20.0533 21.2107 19.7867 20.6453 19.296 20.24C18.8053 19.8133 18.176 19.6 17.408 19.6C16.7467 19.6 16.2133 19.7813 15.808 20.144C15.4027 20.4853 15.2 20.9867 15.2 21.648C15.2 22.3733 15.5413 22.9387 16.224 23.344C16.9067 23.7493 17.9733 24.1867 19.424 24.656C20.8747 25.1467 22.048 25.616 22.944 26.064C23.8613 26.512 24.6507 27.1627 25.312 28.016C25.9733 28.8693 26.304 29.968 26.304 31.312C26.304 32.592 25.9733 33.7547 25.312 34.8C24.672 35.8453 23.7333 36.6773 22.496 37.296C21.2587 37.9147 19.7973 38.224 18.112 38.224ZM28.5835 29.072C28.5835 27.216 28.9568 25.5947 29.7035 24.208C30.4715 22.8213 31.5275 21.7547 32.8715 21.008C34.2368 20.2613 35.7942 19.888 37.5435 19.888C39.7835 19.888 41.6502 20.4747 43.1435 21.648C44.6582 22.8213 45.6502 24.4747 46.1195 26.608H40.2955C39.8048 25.2427 38.8555 24.56 37.4475 24.56C36.4448 24.56 35.6448 24.9547 35.0475 25.744C34.4502 26.512 34.1515 27.6213 34.1515 29.072C34.1515 30.5227 34.4502 31.6427 35.0475 32.432C35.6448 33.2 36.4448 33.584 37.4475 33.584C38.8555 33.584 39.8048 32.9013 40.2955 31.536H46.1195C45.6502 33.6267 44.6582 35.2693 43.1435 36.464C41.6288 37.6587 39.7622 38.256 37.5435 38.256C35.7942 38.256 34.2368 37.8827 32.8715 37.136C31.5275 36.3893 30.4715 35.3227 29.7035 33.936C28.9568 32.5493 28.5835 30.928 28.5835 29.072ZM57.1745 38.256C55.4252 38.256 53.8465 37.8827 52.4385 37.136C51.0518 36.3893 49.9532 35.3227 49.1425 33.936C48.3532 32.5493 47.9585 30.928 47.9585 29.072C47.9585 27.2373 48.3638 25.6267 49.1745 24.24C49.9852 22.832 51.0945 21.7547 52.5025 21.008C53.9105 20.2613 55.4892 19.888 57.2385 19.888C58.9878 19.888 60.5665 20.2613 61.9745 21.008C63.3825 21.7547 64.4918 22.832 65.3025 24.24C66.1132 25.6267 66.5185 27.2373 66.5185 29.072C66.5185 30.9067 66.1025 32.528 65.2705 33.936C64.4598 35.3227 63.3398 36.3893 61.9105 37.136C60.5025 37.8827 58.9238 38.256 57.1745 38.256ZM57.1745 33.52C58.2198 33.52 59.1052 33.136 59.8305 32.368C60.5772 31.6 60.9505 30.5013 60.9505 29.072C60.9505 27.6427 60.5878 26.544 59.8625 25.776C59.1585 25.008 58.2838 24.624 57.2385 24.624C56.1718 24.624 55.2865 25.008 54.5825 25.776C53.8785 26.5227 53.5265 27.6213 53.5265 29.072C53.5265 30.5013 53.8678 31.6 54.5505 32.368C55.2545 33.136 56.1292 33.52 57.1745 33.52ZM87.0535 20.144V38H81.5815V35.568C81.0268 36.3573 80.2695 36.9973 79.3095 37.488C78.3708 37.9573 77.3255 38.192 76.1735 38.192C74.8082 38.192 73.6028 37.8933 72.5575 37.296C71.5122 36.6773 70.7015 35.792 70.1255 34.64C69.5495 33.488 69.2615 32.1333 69.2615 30.576V20.144H74.7015V29.84C74.7015 31.0347 75.0108 31.9627 75.6295 32.624C76.2482 33.2853 77.0802 33.616 78.1255 33.616C79.1922 33.616 80.0348 33.2853 80.6535 32.624C81.2722 31.9627 81.5815 31.0347 81.5815 29.84V20.144H87.0535ZM100.936 33.36V38H98.152C96.168 38 94.6213 37.52 93.512 36.56C92.4027 35.5787 91.848 33.9893 91.848 31.792V24.688H89.672V20.144H91.848V15.792H97.32V20.144H100.904V24.688H97.32V31.856C97.32 32.3893 97.448 32.7733 97.704 33.008C97.96 33.2427 98.3867 33.36 98.984 33.36H100.936Z" fill="white"/>
<path d="M113.112 38.224C111.469 38.224 109.997 37.9573 108.696 37.424C107.395 36.8907 106.349 36.1013 105.56 35.056C104.792 34.0107 104.387 32.752 104.344 31.28H110.168C110.253 32.112 110.541 32.752 111.032 33.2C111.523 33.6267 112.163 33.84 112.952 33.84C113.763 33.84 114.403 33.6587 114.872 33.296C115.341 32.912 115.576 32.3893 115.576 31.728C115.576 31.1733 115.384 30.7147 115 30.352C114.637 29.9893 114.179 29.6907 113.624 29.456C113.091 29.2213 112.323 28.9547 111.32 28.656C109.869 28.208 108.685 27.76 107.768 27.312C106.851 26.864 106.061 26.2027 105.4 25.328C104.739 24.4533 104.408 23.312 104.408 21.904C104.408 19.8133 105.165 18.1813 106.68 17.008C108.195 15.8133 110.168 15.216 112.6 15.216C115.075 15.216 117.069 15.8133 118.584 17.008C120.099 18.1813 120.909 19.824 121.016 21.936H115.096C115.053 21.2107 114.787 20.6453 114.296 20.24C113.805 19.8133 113.176 19.6 112.408 19.6C111.747 19.6 111.213 19.7813 110.808 20.144C110.403 20.4853 110.2 20.9867 110.2 21.648C110.2 22.3733 110.541 22.9387 111.224 23.344C111.907 23.7493 112.973 24.1867 114.424 24.656C115.875 25.1467 117.048 25.616 117.944 26.064C118.861 26.512 119.651 27.1627 120.312 28.016C120.973 28.8693 121.304 29.968 121.304 31.312C121.304 32.592 120.973 33.7547 120.312 34.8C119.672 35.8453 118.733 36.6773 117.496 37.296C116.259 37.9147 114.797 38.224 113.112 38.224ZM123.264 29.072C123.264 27.216 123.637 25.5947 124.384 24.208C125.152 22.8213 126.208 21.7547 127.552 21.008C128.917 20.2613 130.474 19.888 132.224 19.888C134.464 19.888 136.33 20.4747 137.824 21.648C139.338 22.8213 140.33 24.4747 140.8 26.608H134.976C134.485 25.2427 133.536 24.56 132.128 24.56C131.125 24.56 130.325 24.9547 129.728 25.744C129.13 26.512 128.832 27.6213 128.832 29.072C128.832 30.5227 129.13 31.6427 129.728 32.432C130.325 33.2 131.125 33.584 132.128 33.584C133.536 33.584 134.485 32.9013 134.976 31.536H140.8C140.33 33.6267 139.338 35.2693 137.824 36.464C136.309 37.6587 134.442 38.256 132.224 38.256C130.474 38.256 128.917 37.8827 127.552 37.136C126.208 36.3893 125.152 35.3227 124.384 33.936C123.637 32.5493 123.264 30.928 123.264 29.072ZM151.535 38.256C149.785 38.256 148.207 37.8827 146.799 37.136C145.412 36.3893 144.313 35.3227 143.503 33.936C142.713 32.5493 142.319 30.928 142.319 29.072C142.319 27.2373 142.724 25.6267 143.535 24.24C144.345 22.832 145.455 21.7547 146.863 21.008C148.271 20.2613 149.849 19.888 151.599 19.888C153.348 19.888 154.927 20.2613 156.335 21.008C157.743 21.7547 158.852 22.832 159.663 24.24C160.473 25.6267 160.879 27.2373 160.879 29.072C160.879 30.9067 160.463 32.528 159.631 33.936C158.82 35.3227 157.7 36.3893 156.271 37.136C154.863 37.8827 153.284 38.256 151.535 38.256ZM151.535 33.52C152.58 33.52 153.465 33.136 154.191 32.368C154.937 31.6 155.311 30.5013 155.311 29.072C155.311 27.6427 154.948 26.544 154.223 25.776C153.519 25.008 152.644 24.624 151.599 24.624C150.532 24.624 149.647 25.008 148.943 25.776C148.239 26.5227 147.887 27.6213 147.887 29.072C147.887 30.5013 148.228 31.6 148.911 32.368C149.615 33.136 150.489 33.52 151.535 33.52ZM168.934 22.672C169.467 21.84 170.203 21.168 171.142 20.656C172.08 20.144 173.179 19.888 174.438 19.888C175.91 19.888 177.243 20.2613 178.438 21.008C179.632 21.7547 180.571 22.8213 181.254 24.208C181.958 25.5947 182.31 27.2053 182.31 29.04C182.31 30.8747 181.958 32.496 181.254 33.904C180.571 35.2907 179.632 36.368 178.438 37.136C177.243 37.8827 175.91 38.256 174.438 38.256C173.2 38.256 172.102 38 171.142 37.488C170.203 36.976 169.467 36.3147 168.934 35.504V46.512H163.462V20.144H168.934V22.672ZM176.742 29.04C176.742 27.6747 176.358 26.608 175.59 25.84C174.843 25.0507 173.915 24.656 172.806 24.656C171.718 24.656 170.79 25.0507 170.022 25.84C169.275 26.6293 168.902 27.7067 168.902 29.072C168.902 30.4373 169.275 31.5147 170.022 32.304C170.79 33.0933 171.718 33.488 172.806 33.488C173.894 33.488 174.822 33.0933 175.59 32.304C176.358 31.4933 176.742 30.4053 176.742 29.04ZM201.692 28.784C201.692 29.296 201.66 29.8293 201.596 30.384H189.212C189.298 31.4933 189.65 32.3467 190.268 32.944C190.908 33.52 191.687 33.808 192.604 33.808C193.97 33.808 194.919 33.232 195.452 32.08H201.276C200.978 33.2533 200.434 34.3093 199.644 35.248C198.876 36.1867 197.906 36.9227 196.732 37.456C195.559 37.9893 194.247 38.256 192.796 38.256C191.047 38.256 189.49 37.8827 188.124 37.136C186.759 36.3893 185.692 35.3227 184.924 33.936C184.156 32.5493 183.772 30.928 183.772 29.072C183.772 27.216 184.146 25.5947 184.892 24.208C185.66 22.8213 186.727 21.7547 188.092 21.008C189.458 20.2613 191.026 19.888 192.796 19.888C194.524 19.888 196.06 20.2507 197.404 20.976C198.748 21.7013 199.794 22.736 200.54 24.08C201.308 25.424 201.692 26.992 201.692 28.784ZM196.092 27.344C196.092 26.4053 195.772 25.6587 195.132 25.104C194.492 24.5493 193.692 24.272 192.732 24.272C191.815 24.272 191.036 24.5387 190.396 25.072C189.778 25.6053 189.394 26.3627 189.244 27.344H196.092Z" fill="#00A3FF"/>
<rect x="1.5" y="1.5" width="208" height="52" rx="22.5" stroke="white" stroke-width="3"/>
</svg>
