<svg width="336" height="96" viewBox="0 0 336 96" fill="none" xmlns="http://www.w3.org/2000/svg">
<path d="M104.84 10.88H131.16V17.04H121.64V30.76C121.64 33.28 122.48 34.12 125 34.12C126.68 34.12 127.52 33.84 127.52 33.84V39.72C127.52 39.72 126.12 40.28 122.76 40.28C117.44 40.28 113.8 38.88 113.8 32.16V17.04H104.84V10.88ZM158.152 40L153.168 21.352L148.24 40H139.112L132.56 10.88H140.4L144.208 30.928L149.64 10.88H156.752L162.184 30.928L165.992 10.88H173.832L167.28 40H158.152ZM183.623 10.652V40H176.847V10.652H183.623ZM210.407 10.652V16.328L195.315 34.06V34.28H210.495V40H186.779V34.236L201.739 16.592V16.372H187.571V10.652H210.407ZM236.447 10.652V16.328L221.355 34.06V34.28H236.535V40H212.819V34.236L227.779 16.592V16.372H213.611V10.652H236.447Z" fill="black"/>
<path d="M155.074 45.914H162.788L162.498 50.206H162.614C164.586 46.552 166.384 45.624 171.372 45.624C174.736 45.624 177.288 46.378 178.796 47.886C180.884 49.858 181.638 52.7 181.638 58.964C181.638 65.634 180.942 68.65 178.854 70.912C177.346 72.594 175.084 73.29 171.198 73.29C166.442 73.29 164.47 72.188 163.136 68.708H163.02V84.6H155.074V45.914ZM168.356 51.482C163.948 51.482 163.02 52.816 163.02 59.022C163.02 65.808 164.006 67.258 168.472 67.258C172.88 67.258 173.808 65.924 173.808 59.602C173.808 52.7 172.996 51.482 168.356 51.482ZM186.679 45.914H194.393L193.987 50.032H194.103C195.843 46.668 197.641 45.566 201.237 45.566C204.775 45.566 206.921 46.958 207.791 49.858C208.197 51.25 208.255 52.12 208.255 57.108H201.179V56.412V56.006C201.179 52.468 200.599 51.54 198.337 51.54C196.597 51.54 195.321 52.352 194.741 53.86C194.451 54.672 194.393 55.136 194.393 57.224V73H186.679V45.914ZM248.427 34.314V40.404H240.771V34.314H248.427ZM248.427 45.914V73.522C248.427 79.612 246.281 81.816 240.423 81.816C239.495 81.816 238.973 81.758 237.987 81.526V76.19H238.567C240.249 76.19 240.713 75.436 240.713 72.826V45.914H248.427ZM271.412 64.126H279.01V64.88C279.01 66.968 278.488 68.882 277.56 70.158C275.936 72.362 272.978 73.29 267.294 73.29C261.32 73.29 258.246 72.536 256.216 70.622C254.186 68.708 253.49 65.634 253.49 59.08C253.49 53.164 254.186 50.322 256.1 48.408C258.13 46.436 261.146 45.624 266.366 45.624C276.226 45.624 279.01 48.408 279.01 58.442V60.82H261.204C261.146 61.284 261.146 61.748 261.146 61.922C261.146 66.562 262.306 67.78 266.54 67.78C270.484 67.78 271.354 67.084 271.412 64.126ZM261.262 56.354H271.528C271.47 55.948 271.47 55.542 271.47 55.426C271.412 51.888 270.6 51.25 266.308 51.25C263.292 51.25 262.248 51.656 261.668 53.048C261.378 53.744 261.32 54.208 261.262 56.354ZM300.689 62.386H308.287C308.287 66.562 307.997 68.244 306.953 69.868C305.329 72.478 302.893 73.29 296.687 73.29C290.945 73.29 288.103 72.652 286.015 70.796C283.753 68.824 282.999 65.982 282.999 59.428C282.999 53.686 283.579 50.96 285.203 48.93C287.001 46.668 290.249 45.624 295.527 45.624C305.329 45.624 307.939 47.77 307.939 55.774H300.457C300.399 52.352 299.587 51.54 296.049 51.54C291.351 51.54 290.829 52.352 290.829 59.486C290.829 66.388 291.467 67.374 296.049 67.374C300.051 67.374 300.689 66.678 300.689 62.386ZM332.293 45.914V51.598H321.969V63.836C321.969 66.852 322.433 67.548 324.347 67.548C326.609 67.548 327.189 66.678 327.189 63.14C327.189 62.966 327.189 62.618 327.131 62.212H333.453V63.43C333.453 66.794 333.279 68.012 332.757 69.288C331.539 72.246 329.103 73.29 323.303 73.29C318.721 73.29 316.401 72.362 315.067 69.984C314.429 68.882 314.255 67.722 314.255 65.17V51.598H310.833V45.914H314.255V40.056H321.969V45.914H332.293Z" fill="#00A3FF"/>
<path d="M2.54999 52.565V45.935L30.26 35.735V42.45L11.22 49.25L30.26 56.05V62.765L2.54999 52.565ZM57.5862 19.5H65.6612L42.2012 79H34.1262L57.5862 19.5ZM69.4742 62.765V56.05L88.5142 49.25L69.4742 42.45V35.735L97.1842 45.935V52.565L69.4742 62.765Z" fill="black"/>
<mask id="mask0_3_7" style="mask-type:luminance" maskUnits="userSpaceOnUse" x="211" y="46" width="27" height="36">
<path d="M238 46H211V82H238V46Z" fill="white"/>
</mask>
<g mask="url(#mask0_3_7)">
<path d="M220.592 46.1612C220.193 46.2378 219.68 46.345 219.458 46.3909L219.052 46.4751L218.301 47.478L217.558 48.4885L216.141 49.0856L214.732 49.6828L214.173 51.9105L213.614 54.1382L213.024 54.8349C212.695 55.2177 212.304 55.6923 212.143 55.8837L211.86 56.2359L212.25 57.8971L212.633 59.5507L212.388 59.8799C212.243 60.056 211.89 60.4923 211.592 60.8522C211.293 61.2119 211.025 61.5412 211.002 61.5794C210.925 61.7096 213.269 70.1306 213.399 70.2072C213.461 70.2378 214.181 70.5363 215 70.8656L216.494 71.4703L217.26 72.5421C217.689 73.1315 218.079 73.6904 218.141 73.7746C218.232 73.9124 218.547 73.9966 219.918 74.2876C220.829 74.4789 221.61 74.6321 221.649 74.6321C221.695 74.6321 222.147 74.1804 222.652 73.6215L223.579 72.611V68.9746V65.3306L222.882 64.5804L222.177 63.8301L222.33 63.6617C222.415 63.5698 222.729 63.2177 223.027 62.8732L223.579 62.2531V55.1182V47.9832L222.652 46.9957C221.61 45.8703 221.756 45.9316 220.592 46.1612ZM221.993 47.7383L222.583 48.366V49.7057C222.583 51.0378 222.583 51.0531 222.415 51.0914C221.932 51.1986 220.232 51.5124 220.109 51.5124C220.032 51.5124 219.856 51.3976 219.718 51.2521C219.581 51.1067 219.374 50.9689 219.244 50.9383C218.853 50.8541 218.799 50.7852 218.531 49.966L218.271 49.1622L218.929 48.2741L219.588 47.3938L220.186 47.2636C220.515 47.1947 220.821 47.1258 220.86 47.1105C220.906 47.0952 221.044 47.0875 221.166 47.0952C221.342 47.1105 221.526 47.2483 221.993 47.7383ZM217.918 50.2646C218.11 50.8464 218.141 51.0301 218.072 51.122C217.758 51.5507 217.681 51.7344 217.681 52.0177V52.3392L216.655 52.9976C215.682 53.6253 215.605 53.6636 215.329 53.61C215.169 53.5718 214.977 53.5564 214.901 53.5718C214.786 53.587 214.77 53.5564 214.824 53.3727C214.855 53.2579 215.031 52.5383 215.222 51.7804L215.575 50.4024L216.609 49.966C217.175 49.721 217.65 49.5297 217.658 49.522C217.666 49.522 217.781 49.8588 217.918 50.2646ZM222.568 54.1306L222.545 56.5268L221.626 56.611C220.117 56.7564 220.04 56.7564 219.864 56.4656C219.78 56.3354 219.596 56.1517 219.466 56.0674L219.221 55.9144L219.213 54.5976V53.2808L219.435 53.1584C219.695 53.0282 219.948 52.7067 220.017 52.4081C220.048 52.2857 220.14 52.1861 220.239 52.1631C220.63 52.0636 222.254 51.7574 222.415 51.7497L222.583 51.7421L222.568 54.1306ZM218.248 53.1354L218.516 53.3115V54.6129L218.524 55.9144L218.217 56.0904C218.033 56.1976 217.849 56.3813 217.773 56.5421L217.643 56.8101L216.915 56.7564C216.233 56.7105 216.172 56.6875 215.935 56.4656C215.452 55.9985 214.755 56.19 214.541 56.8407C214.433 57.1546 214.495 57.3765 214.755 57.6521C215.123 58.0502 215.735 57.9813 216.042 57.5143C216.157 57.3459 216.21 57.3306 216.486 57.3613C216.662 57.3842 216.992 57.4225 217.237 57.4454C217.604 57.4837 217.673 57.5143 217.712 57.6751C217.735 57.7746 217.865 57.9584 217.987 58.0885L218.225 58.3181L217.811 59.3746L217.398 60.4311L217.038 60.4847C216.838 60.5077 216.593 60.5918 216.494 60.6531C216.394 60.722 216.272 60.7756 216.226 60.7756C216.18 60.7756 215.582 60.5 214.901 60.1632L213.66 59.5507L213.292 58.0196L212.924 56.4885L213.407 55.9067C213.675 55.5851 213.966 55.2254 214.058 55.1182L214.219 54.9191L214.41 55.1028C214.671 55.3402 215.23 55.4091 215.506 55.233C215.72 55.0876 215.919 54.6894 215.919 54.4062C215.919 54.2684 216.118 54.1 216.892 53.5947C217.428 53.2502 217.888 52.967 217.918 52.967C217.949 52.967 218.095 53.0435 218.248 53.1354ZM222.583 59.5737V61.9622L221.963 62.6665L221.342 63.3708L220.301 62.8273C218.401 61.832 218.424 61.8397 218.355 61.5105C218.317 61.3497 218.217 61.1201 218.133 60.99L217.972 60.7603L218.255 59.9871C218.753 58.632 218.876 58.4024 219.075 58.4024C219.358 58.4024 219.787 58.0579 219.956 57.6981L220.117 57.3689L221.135 57.2847C221.702 57.2387 222.254 57.1928 222.376 57.1928L222.583 57.1775V59.5737ZM214.686 60.8215L215.889 61.3957L215.881 61.679C215.881 61.832 215.904 62.0541 215.935 62.1689C215.988 62.345 215.942 62.4139 215.529 62.7737C215.077 63.1641 215.054 63.1718 214.625 63.1564C214.242 63.1411 214.142 63.1718 213.943 63.3402C213.805 63.455 213.66 63.677 213.606 63.8531C213.545 64.0521 213.407 64.2435 213.185 64.4272C213.001 64.5804 212.84 64.6876 212.825 64.6722C212.779 64.6263 212.089 62.0541 212.089 61.9392C212.089 61.7861 213.33 60.2397 213.453 60.2397C213.468 60.2397 214.02 60.5 214.686 60.8215ZM219.657 63.2177C220.339 63.5775 220.898 63.8837 220.898 63.9067C220.898 63.9373 220.684 64.1899 220.423 64.4885C220.17 64.7794 219.826 65.1699 219.672 65.3459L219.397 65.6674L219.021 65.5756L218.654 65.4761L218.363 64.4885C217.865 62.8273 217.88 62.8655 218.018 62.6512C218.164 62.4292 218.049 62.3909 219.657 63.2177ZM217.099 63.0722C217.26 63.0722 217.306 63.1258 217.375 63.3937C217.428 63.5775 217.597 64.167 217.758 64.7105L218.056 65.7057L217.827 65.9354C217.704 66.0579 217.604 66.2034 217.604 66.2569C217.604 66.3029 217.558 66.3794 217.512 66.4177C217.451 66.4636 216.524 66.5172 215.375 66.5402L213.338 66.5861L213.169 65.9737C213.078 65.6292 213.009 65.3459 213.024 65.3383C213.039 65.3306 213.192 65.2081 213.361 65.078C213.744 64.7871 213.759 64.7871 214.119 64.9938C214.801 65.3995 215.605 64.8024 215.506 63.9679C215.467 63.6541 215.467 63.6387 215.942 63.2559C216.409 62.8808 216.425 62.8732 216.662 62.9727C216.8 63.0263 216.999 63.0722 217.099 63.0722ZM222.032 65.0244L222.583 65.6368V66.9919C222.583 67.7421 222.56 68.3545 222.537 68.3545C222.499 68.3545 220.461 67.2675 220.201 67.1067C220.124 67.0608 220.04 66.8847 220.009 66.7086C219.987 66.5402 219.933 66.3488 219.895 66.2799C219.849 66.188 220.025 65.9354 220.615 65.2617C221.036 64.7717 221.411 64.3813 221.434 64.389C221.465 64.4043 221.733 64.6876 222.032 65.0244ZM217.566 67.2828C217.597 67.367 217.704 67.5431 217.811 67.6732L218.01 67.9029L217.405 69.166C217.076 69.8627 216.777 70.4522 216.747 70.4674C216.67 70.5134 214.318 69.5335 214.181 69.4033C214.104 69.3268 213.545 67.4512 213.545 67.2675C213.545 67.2368 214.073 67.1986 214.717 67.1832C215.352 67.1756 216.249 67.1526 216.701 67.145C217.459 67.1297 217.52 67.1373 217.566 67.2828ZM221.197 68.4004L222.583 69.1354V70.6665V72.2053L222.147 72.7029C221.901 72.9708 221.633 73.2847 221.549 73.3842L221.388 73.5756L220.132 73.3C219.335 73.1239 218.822 72.9785 218.738 72.8942C218.661 72.8177 218.317 72.3431 217.957 71.8454L217.313 70.9268L217.658 70.1995C217.849 69.7938 218.148 69.166 218.317 68.7909C218.577 68.232 218.661 68.1249 218.807 68.1249C219.006 68.1249 219.558 67.8722 219.634 67.7421C219.657 67.7038 219.711 67.6655 219.749 67.6655C219.787 67.6655 220.438 67.9947 221.197 68.4004Z" fill="#00A3FF"/>
<path d="M226.322 46.9722L225.426 47.9522L225.418 55.133V62.3216L226.069 63.0411C226.429 63.4392 226.72 63.7914 226.72 63.822C226.72 63.8526 226.429 64.2048 226.069 64.6029L225.418 65.3302V69.0048L225.426 72.6794L226.306 73.6517C226.797 74.1952 227.241 74.6316 227.295 74.6316C227.409 74.6316 230.642 73.9426 230.703 73.9043C230.734 73.889 231.124 73.3301 231.584 72.6565L232.419 71.4469L233.958 70.8498C234.801 70.5206 235.529 70.2143 235.575 70.1608C235.621 70.1148 235.827 69.4412 236.049 68.6603C236.264 67.8794 236.785 66.0192 237.214 64.511C237.635 63.0105 237.98 61.755 237.98 61.7167C237.98 61.6785 237.604 61.1885 237.137 60.622C236.678 60.0631 236.295 59.5808 236.295 59.5426C236.295 59.5043 236.471 58.7617 236.685 57.889C237.022 56.5033 237.061 56.2737 236.969 56.1282C236.915 56.044 236.501 55.5387 236.057 55.0182L235.245 54.0766L234.77 52.155C234.51 51.0986 234.265 50.111 234.227 49.9655C234.15 49.7129 234.096 49.6746 233.009 49.1847C232.381 48.9091 231.76 48.6411 231.638 48.5952C231.469 48.534 231.186 48.2278 230.634 47.4852C230.136 46.8344 229.799 46.4517 229.692 46.4211C229.171 46.3062 227.463 46 227.348 46C227.279 46 226.812 46.4364 226.322 46.9722ZM228.421 47.1866C228.727 47.2478 229.056 47.3167 229.148 47.3397C229.317 47.378 230.473 48.8785 230.473 49.0622C230.473 49.1158 230.274 49.3914 230.037 49.6823C229.646 50.1416 229.562 50.2105 229.332 50.2105C229.186 50.2105 228.949 50.2871 228.811 50.3789C228.129 50.8459 228.206 51.7799 228.949 52.1627L229.148 52.2699L229.24 54.0306L229.34 55.7914L229.056 56.044C228.903 56.1742 228.742 56.3655 228.704 56.4651C228.627 56.6641 228.558 56.6718 227.233 56.5876L226.414 56.5416V52.4153V48.2967L226.996 47.6842C227.318 47.3474 227.647 47.0718 227.724 47.0718C227.8 47.0718 228.114 47.1254 228.421 47.1866ZM232.197 49.912C232.764 50.1722 233.254 50.4172 233.292 50.4708C233.361 50.5474 234.227 53.9464 234.227 54.1148C234.227 54.2144 233.897 54.4134 232.22 55.332L230.787 56.1206L230.412 55.9369C229.96 55.7225 229.968 55.7761 229.891 53.6555L229.838 52.2393L230.075 51.9866C230.381 51.6574 230.45 51.29 230.297 50.8842L230.175 50.578L230.642 50.0115C230.895 49.6976 231.124 49.445 231.14 49.445C231.155 49.445 231.63 49.6593 232.197 49.912ZM235.314 55.6995L236.004 56.4804L235.636 58.0038L235.276 59.5273L233.997 60.1627L232.725 60.7981L232.457 60.6526C232.319 60.5761 232.044 60.4995 231.86 60.4765L231.515 60.4306L231.04 59.2517L230.573 58.0727L230.787 57.7206C230.941 57.4833 231.009 57.2766 231.009 57.0622V56.7407L232.181 56.1053C232.817 55.7531 233.591 55.332 233.882 55.1713C234.181 55.0105 234.464 54.888 234.525 54.8957C234.586 54.911 234.939 55.2708 235.314 55.6995ZM227.869 57.2919L228.604 57.3455L228.75 57.6134C228.949 57.9809 229.248 58.1876 229.646 58.2411L229.968 58.2871L230.458 59.5043L230.948 60.7292L230.787 61.0125C230.703 61.1655 230.604 61.4182 230.573 61.5713C230.512 61.8545 230.489 61.8699 229.064 62.5971L227.609 63.3321L227.011 62.6813L226.414 62.0383V59.6038V57.1617L226.781 57.2077C226.981 57.2306 227.471 57.2689 227.869 57.2919ZM235.881 60.645C236.088 60.867 236.402 61.2421 236.578 61.4794L236.907 61.9005L236.524 63.2632C236.318 64.0134 236.126 64.6412 236.103 64.6641C236.072 64.6947 234.349 63.4316 233.3 62.5971C232.947 62.3215 232.94 62.3062 233.009 62.046C233.047 61.8928 233.078 61.6861 233.062 61.5866C233.039 61.4105 233.131 61.3416 234.188 60.821C234.824 60.5072 235.375 60.2469 235.421 60.2469C235.475 60.2392 235.682 60.423 235.881 60.645ZM231.293 62.9493C231.599 63.1024 231.929 63.1024 232.281 62.9569L232.549 62.8498L233.828 63.822C234.533 64.3579 235.291 64.932 235.513 65.1005C235.766 65.2919 235.896 65.445 235.881 65.5215C235.858 65.5828 235.613 66.4632 235.337 67.4737C235.054 68.4842 234.786 69.3493 234.74 69.4029C234.648 69.4947 232.158 70.5282 232.12 70.4823C232.112 70.467 231.86 69.9081 231.553 69.2421L231.009 68.0172L231.216 67.6115L231.431 67.2057L232.304 67.2593C233.154 67.3053 233.185 67.3129 233.392 67.5426C233.805 68.0096 234.617 67.7876 234.732 67.1675C234.878 66.3713 233.92 65.8277 233.384 66.4096C233.215 66.5856 233.162 66.5933 232.312 66.5933H231.415L231.232 66.31C230.918 65.8354 230.688 65.7129 230.083 65.7129H229.546L228.88 64.955C228.145 64.1206 227.984 63.9215 228.03 63.8833C228.045 63.8679 228.666 63.5388 229.401 63.156L230.741 62.467L230.895 62.6507C230.979 62.7502 231.155 62.8804 231.293 62.9493ZM228.352 65.3684C228.88 65.9732 229.087 66.2718 229.049 66.356C229.018 66.4249 228.964 66.6163 228.918 66.7923C228.842 67.0986 228.834 67.1139 227.632 67.734L226.414 68.3694V66.9761V65.5828L226.927 65.0163C227.21 64.7024 227.478 64.4574 227.517 64.4727C227.563 64.488 227.938 64.8861 228.352 65.3684ZM229.37 67.9483C229.516 68.0555 229.815 68.1856 230.037 68.2392L230.427 68.3234L230.91 69.4105L231.385 70.4976H230.427H229.462L229.232 70.268C228.911 69.9464 228.436 69.9464 228.084 70.2603C227.869 70.4517 227.831 70.5359 227.831 70.8421C227.831 71.1483 227.869 71.2326 228.084 71.4239C228.413 71.7225 228.934 71.7378 229.209 71.4545C229.317 71.355 229.401 71.2326 229.401 71.1866C229.401 71.1407 229.761 71.11 230.404 71.11C231.247 71.11 231.4 71.1254 231.369 71.2172C231.346 71.2785 231.063 71.7072 230.741 72.1665L230.167 72.9933L228.918 73.2766C228.237 73.4373 227.655 73.5598 227.624 73.5598C227.601 73.5598 227.31 73.2612 226.996 72.9014L226.414 72.2354V70.6584V69.0813L227.739 68.4153C228.459 68.0478 229.064 67.7493 229.079 67.7416C229.095 67.7416 229.225 67.8335 229.37 67.9483Z" fill="#00A3FF"/>
</g>
</svg>
