<svg width="1000" height="875" viewBox="0 0 1000 875" fill="none" xmlns="http://www.w3.org/2000/svg">
<g clip-path="url(#clip0_4278_65)">
<path d="M499 0C502.767 1.25554 503.111 2.3853 505.082 5.75781C505.677 6.76368 506.272 7.76956 506.884 8.80591C507.521 9.90121 508.157 10.9965 508.812 12.125C509.829 13.8482 510.846 15.5714 511.864 17.2937C512.56 18.4716 513.255 19.6502 513.949 20.8295C517.201 26.3586 520.529 31.8397 523.875 37.3125C525.029 39.2043 526.183 41.0962 527.336 42.9883C528.221 44.4397 528.221 44.4397 529.124 45.9204C532.225 51.0111 535.317 56.1072 538.41 61.2031C546.262 74.1424 554.127 87.0732 562 100C569.873 112.928 577.739 125.86 585.592 138.8C590.389 146.703 595.191 154.604 600 162.5C605.174 170.996 610.339 179.497 615.5 188C622.99 200.34 630.492 212.672 638 225C645.872 237.926 653.737 250.857 661.589 263.795C669.969 277.601 678.367 291.395 686.77 305.188C687.394 306.213 688.018 307.238 688.661 308.294C689.843 310.234 691.025 312.174 692.208 314.115C693.281 315.878 694.35 317.643 695.414 319.413C696.502 321.187 697.624 322.942 698.773 324.677C699.333 325.54 699.892 326.404 700.469 327.293C700.979 328.055 701.488 328.817 702.014 329.602C703.798 333.939 702.242 337.59 700.552 341.731C699.931 343.148 699.302 344.562 698.668 345.973C698.325 346.751 697.981 347.529 697.628 348.331C696.487 350.911 695.338 353.487 694.188 356.062C693.375 357.896 692.563 359.73 691.751 361.563C689.606 366.407 687.453 371.247 685.297 376.086C683.213 380.768 681.136 385.452 679.059 390.137C675.312 398.581 671.558 407.021 667.801 415.46C663.613 424.869 659.43 434.28 655.248 443.692C653.166 448.378 651.083 453.064 649 457.75C648.167 459.625 647.333 461.5 646.5 463.375C638.145 482.173 629.79 500.972 621.436 519.77C621.01 520.726 620.585 521.683 620.147 522.668C619.29 524.597 618.433 526.525 617.576 528.454C615.458 533.219 613.341 537.984 611.223 542.749C607.425 551.296 603.626 559.843 599.82 568.387C598.505 571.341 597.19 574.295 595.875 577.25C595.554 577.971 595.234 578.691 594.903 579.434C589.984 590.49 585.115 601.568 580.262 612.654C579.887 613.51 579.512 614.367 579.125 615.25C578.75 616.106 578.375 616.963 577.989 617.845C572.04 631.424 565.99 644.955 559.887 658.464C551.445 677.158 543.204 695.937 534.991 714.732C533.322 718.551 531.651 722.369 529.98 726.188C529.4 727.514 528.819 728.841 528.239 730.168C527.83 731.103 527.421 732.037 527 733C526.01 733 525.02 733 524 733C522.194 730.588 522.194 730.588 520.199 727.227C519.84 726.629 519.481 726.031 519.112 725.415C517.96 723.491 516.824 721.558 515.688 719.625C514.934 718.36 514.179 717.096 513.424 715.832C510.653 711.188 507.887 706.542 505.19 701.854C504.659 700.941 504.129 700.027 503.582 699.086C503.127 698.29 502.671 697.494 502.202 696.673C501.806 696.121 501.409 695.569 501 695C500.34 695 499.68 695 499 695C497.561 696.935 497.561 696.935 496.121 699.484C495.538 700.468 494.956 701.452 494.355 702.465C493.722 703.549 493.09 704.633 492.438 705.75C491.425 707.462 490.412 709.174 489.397 710.885C488.687 712.084 487.978 713.283 487.27 714.483C483.381 721.064 479.412 727.595 475.438 734.125C474.717 735.31 473.996 736.496 473.276 737.681C471.185 741.122 469.093 744.561 467 748C466.377 749.024 465.754 750.048 465.112 751.103C460.514 758.661 455.913 766.217 451.312 773.772C449.603 776.577 447.895 779.382 446.188 782.188C445.347 783.568 445.347 783.568 444.489 784.976C441.11 790.525 437.74 796.079 434.375 801.637C433.199 803.579 432.022 805.521 430.845 807.463C430.076 808.733 429.308 810.003 428.54 811.274C427.469 813.046 426.397 814.816 425.324 816.586C424.706 817.607 424.088 818.629 423.452 819.681C422 822 422 822 421 823C418.769 823.098 416.535 823.124 414.302 823.123C413.59 823.124 412.878 823.125 412.145 823.127C409.729 823.129 407.313 823.125 404.897 823.12C403.16 823.121 401.422 823.122 399.685 823.123C394.887 823.125 390.089 823.121 385.291 823.116C380.126 823.112 374.961 823.113 369.796 823.114C360.84 823.114 351.883 823.111 342.927 823.106C329.977 823.098 317.027 823.095 304.077 823.094C283.07 823.092 262.062 823.085 241.054 823.075C220.641 823.066 200.228 823.059 179.816 823.055C178.558 823.055 177.301 823.054 176.006 823.054C169.699 823.053 163.392 823.052 157.085 823.05C104.723 823.04 52.3616 823.022 0 823C0.817479 819.376 2.19179 816.714 4.10547 813.512C4.75209 812.425 5.39872 811.338 6.06494 810.218C6.77228 809.041 7.4798 807.864 8.1875 806.688C8.91618 805.468 9.64453 804.248 10.3726 803.028C16.6183 792.578 22.9429 782.175 29.2954 771.789C32.1408 767.134 34.9764 762.473 37.8125 757.812C38.6674 756.408 38.6674 756.408 39.5396 754.976C44.1989 747.321 48.8502 739.661 53.5 732C61.5511 718.735 69.6175 705.48 77.6885 692.228C84.2698 681.421 90.8457 670.61 97.4111 659.794C98.4979 658.004 99.5848 656.213 100.672 654.423C101.389 653.242 102.107 652.06 102.824 650.879C103.176 650.299 103.529 649.719 103.892 649.121C106.187 645.341 108.479 641.56 110.77 637.777C118.051 625.768 125.454 613.845 133 602C140.074 604.193 146.624 607.022 153.312 610.188C163.765 615.07 174.265 619.827 184.812 624.5C185.929 624.995 185.929 624.995 187.069 625.5C191.022 627.253 194.976 629.004 198.93 630.755C208.04 634.788 217.145 638.831 226.25 642.875C227.197 643.296 228.145 643.717 229.121 644.15C242.619 650.146 256.098 656.18 269.562 662.25C281.924 667.823 294.295 673.373 306.688 678.875C307.411 679.196 308.134 679.517 308.879 679.848C313.43 681.868 317.982 683.887 322.534 685.906C329.817 689.137 337.1 692.368 344.382 695.602C346.286 696.447 348.19 697.292 350.095 698.138C360.591 702.797 371.077 707.476 381.543 712.203C382.468 712.621 383.393 713.038 384.346 713.468C388.745 715.455 393.143 717.445 397.538 719.441C399.107 720.151 400.677 720.861 402.246 721.57C403.298 722.05 403.298 722.05 404.37 722.54C408.188 724.263 412.002 725.751 416 727C415.649 726.524 415.298 726.048 414.937 725.557C413.87 724.109 412.802 722.66 411.735 721.211C410.476 719.503 409.217 717.795 407.959 716.088C404.797 711.797 401.636 707.506 398.48 703.211C391.904 694.264 385.279 685.356 378.606 676.481C373.786 670.065 369.02 663.611 364.27 657.145C360.047 651.404 355.783 645.696 351.5 640C346.046 632.747 340.643 625.458 335.27 618.145C331.047 612.404 326.783 606.696 322.5 601C317.046 593.747 311.643 586.458 306.27 579.145C301.424 572.557 296.519 566.014 291.603 559.478C287.387 553.866 283.214 548.223 279.062 542.562C274.036 535.71 268.918 528.934 263.75 522.188C259.007 515.995 254.349 509.768 249.866 503.385C246.048 497.986 242.023 492.748 238 487.5C233.284 481.341 228.589 475.174 224.062 468.875C223.452 468.033 223.452 468.033 222.83 467.174C221.124 464.776 219.939 462.816 219 460C220.177 457.533 220.177 457.533 222.023 454.566C223.047 452.903 223.047 452.903 224.092 451.205C224.853 449.991 225.614 448.777 226.375 447.562C227.155 446.301 227.935 445.038 228.713 443.775C230.333 441.149 231.957 438.525 233.585 435.903C236.914 430.534 240.185 425.13 243.456 419.725C245.218 416.815 246.984 413.908 248.75 411C249.458 409.833 250.167 408.667 250.875 407.5C272.125 372.5 272.125 372.5 273.187 370.75C273.896 369.583 274.604 368.416 275.313 367.249C277.081 364.337 278.85 361.424 280.618 358.511C284.198 352.616 287.777 346.72 291.355 340.824C294.894 334.995 298.433 329.166 301.973 323.338C303.961 320.064 305.947 316.79 307.934 313.516C309.164 311.49 310.394 309.463 311.625 307.438C312.169 306.541 312.712 305.644 313.272 304.719C314.84 302.141 316.416 299.569 318 297C318.621 295.991 319.242 294.982 319.882 293.942C320.506 292.941 321.13 291.941 321.773 290.91C322.342 289.995 322.911 289.08 323.498 288.137C325 286 325 286 327 285C327.442 285.858 327.883 286.717 328.338 287.601C337.049 304.525 345.775 321.441 354.543 338.336C358.181 345.346 361.81 352.36 365.438 359.375C365.748 359.976 366.059 360.578 366.38 361.197C368.903 366.076 371.425 370.955 373.948 375.833C376.153 380.097 378.357 384.361 380.562 388.625C381.029 389.527 381.029 389.527 381.505 390.447C385.998 399.134 390.497 407.818 395 416.5C401.713 429.442 408.412 442.392 415.109 455.343C417.927 460.792 420.745 466.241 423.564 471.69C425.126 474.71 426.688 477.73 428.25 480.75C428.875 481.958 429.5 483.167 430.125 484.375C441.375 506.125 452.625 527.875 463.875 549.625C464.339 550.522 464.339 550.522 464.812 551.437C465.438 552.646 466.063 553.856 466.689 555.065C468.244 558.072 469.799 561.079 471.355 564.085C474.254 569.688 477.151 575.292 480.043 580.898C481.391 583.512 482.74 586.126 484.09 588.74C484.726 589.972 485.361 591.204 485.996 592.437C486.883 594.159 487.771 595.88 488.66 597.602C489.162 598.574 489.663 599.547 490.18 600.549C492.735 605.394 495.377 610.192 498 615C498.33 412.05 498.66 209.1 499 0Z" fill="black"/>
<path d="M822 531C826.228 532.409 827.247 535.42 829.312 539.125C830.208 540.689 831.105 542.251 832.004 543.812C832.486 544.653 832.968 545.493 833.465 546.359C836.157 550.99 838.956 555.555 841.75 560.125C842.344 561.099 842.939 562.073 843.551 563.076C844.766 565.068 845.982 567.059 847.199 569.05C850.075 573.76 852.944 578.474 855.812 583.188C856.667 584.591 856.667 584.591 857.538 586.022C862.563 594.277 867.578 602.538 872.592 610.8C877.389 618.703 882.191 626.604 887 634.5C892.174 642.996 897.339 651.497 902.5 660C909.99 672.34 917.492 684.672 925 697C932.872 709.926 940.737 722.857 948.589 735.795C954.59 745.68 960.598 755.561 966.613 765.438C968.884 769.165 971.152 772.895 973.418 776.625C973.988 777.563 974.558 778.5 975.145 779.467C976.291 781.351 977.435 783.236 978.579 785.121C981.833 790.475 985.12 795.807 988.438 801.121C989.552 802.913 990.667 804.704 991.781 806.496C992.506 807.659 993.233 808.819 993.963 809.978C994.979 811.591 995.986 813.21 996.992 814.828C997.573 815.755 998.155 816.682 998.753 817.638C1000 820 1000 820 1000 823C881.53 823 763.06 823 641 823C640.34 824.98 639.68 826.96 639 829C638.271 830.458 637.495 831.894 636.672 833.301C636.208 834.102 635.744 834.903 635.267 835.728C634.766 836.581 634.266 837.434 633.75 838.312C632.676 840.166 631.603 842.02 630.531 843.875C629.963 844.857 629.394 845.84 628.809 846.852C625.576 852.479 622.415 858.147 619.25 863.812C618.63 864.922 618.009 866.032 617.37 867.175C615.913 869.783 614.456 872.391 613 875C609.057 873.686 608.586 872.126 606.48 868.586C606.145 868.028 605.81 867.47 605.465 866.896C604.364 865.06 603.276 863.218 602.188 861.375C601.425 860.099 600.661 858.823 599.896 857.548C598.34 854.951 596.788 852.352 595.239 849.751C592.048 844.397 588.807 839.072 585.562 833.75C584.985 832.801 584.408 831.851 583.812 830.873C580.639 825.664 577.435 820.476 574.188 815.312C569.794 808.318 565.471 801.28 561.17 794.229C560.396 792.961 559.62 791.694 558.844 790.427C557.746 788.637 556.654 786.845 555.562 785.051C554.924 784.006 554.286 782.961 553.629 781.884C552.168 779.298 551.02 776.784 550 774C565.126 759.793 565.126 759.793 571.113 754.637C573.437 752.621 575.717 750.562 578 748.5C580.981 745.81 583.972 743.137 587 740.5C591.717 736.389 596.356 732.193 601 728C606.28 723.232 611.573 718.485 616.938 713.812C620.175 710.967 623.367 708.071 626.566 705.184C628.675 703.292 630.799 701.421 632.938 699.562C636.166 696.752 639.337 693.884 642.5 691C646.287 687.547 650.105 684.139 653.973 680.777C656.335 678.706 658.668 676.605 661 674.5C663.959 671.83 666.929 669.177 669.938 666.562C673.166 663.752 676.337 660.884 679.5 658C683.289 654.544 687.111 651.135 690.98 647.77C695.027 644.224 699.007 640.605 703 637C708.28 632.232 713.573 627.485 718.938 622.812C722.175 619.967 725.367 617.071 728.566 614.184C730.675 612.292 732.799 610.421 734.938 608.562C738.166 605.752 741.337 602.884 744.5 600C748.287 596.547 752.105 593.139 755.973 589.777C758.335 587.706 760.668 585.605 763 583.5C765.959 580.83 768.929 578.177 771.938 575.562C775.166 572.752 778.337 569.884 781.5 567C785.289 563.544 789.111 560.135 792.98 556.77C797.91 552.45 802.752 548.033 807.613 543.637C809.296 542.117 810.982 540.602 812.672 539.09C814.152 537.761 815.622 536.421 817.078 535.066C818.652 533.634 820.318 532.304 822 531Z" fill="black"/>
</g>
<defs>
<clipPath id="clip0_4278_65">
<rect width="1000" height="875" fill="white"/>
</clipPath>
</defs>
</svg>
